<?xml version="1.0" encoding="utf-8"?>
<!-- Generator: Adobe Illustrator 16.0.0, SVG Export Plug-In . SVG Version: 6.00 Build 0)  -->
<!DOCTYPE svg PUBLIC "-//W3C//DTD SVG 1.1//EN" "http://www.w3.org/Graphics/SVG/1.1/DTD/svg11.dtd">
<svg version="1.1" id="레이어_1" xmlns="http://www.w3.org/2000/svg" xmlns:xlink="http://www.w3.org/1999/xlink" x="0px"
	 y="0px" width="38px" height="38px" viewBox="0 0 38 38" enable-background="new 0 0 38 38" xml:space="preserve">
<path fill="#737373" d="M0,18.377c0.038-0.049,0.081-0.095,0.115-0.144c2.206-3.288,4.914-6.077,8.223-8.263
	c1.945-1.286,4.039-2.25,6.309-2.816c2.103-0.524,4.23-0.665,6.385-0.418c2.958,0.339,5.665,1.38,8.168,2.959
	c3.528,2.228,6.375,5.153,8.687,8.612c0.034,0.052,0.076,0.097,0.114,0.144c0,0.027,0,0.052,0,0.077
	c-0.302,0.429-0.594,0.863-0.903,1.285c-2.113,2.859-4.602,5.334-7.593,7.279c-1.955,1.271-4.054,2.225-6.325,2.771
	c-2.05,0.494-4.123,0.625-6.22,0.378c-2.261-0.267-4.393-0.947-6.414-1.981c-3.08-1.578-5.662-3.777-7.93-6.369
	c-0.927-1.058-1.785-2.168-2.543-3.355C0.053,18.503,0.025,18.479,0,18.452C0,18.427,0,18.402,0,18.377z M19.008,8.952
	c-0.781,0.065-1.566,0.098-2.342,0.205c-2.227,0.305-4.305,1.054-6.244,2.183c-2.892,1.687-5.246,3.952-7.155,6.691
	c-0.321,0.461-0.317,0.461,0.008,0.931c1.217,1.761,2.649,3.324,4.299,4.688c2.574,2.129,5.464,3.586,8.787,4.125
	c1.823,0.297,3.644,0.285,5.461-0.024c1.949-0.332,3.787-0.998,5.508-1.972c3.1-1.752,5.594-4.154,7.584-7.096
	c0.096-0.142,0.102-0.238,0.003-0.382c-1.878-2.787-4.222-5.089-7.106-6.823C25.105,9.854,22.177,8.998,19.008,8.952z"/>
<path fill="#737373" d="M11.876,18.472c0.037-3.965,3.229-7.138,7.146-7.104c3.962,0.036,7.146,3.243,7.101,7.149
	c-0.048,3.965-3.254,7.146-7.154,7.096C15.009,25.563,11.841,22.374,11.876,18.472z"/>
</svg>
