<?xml version="1.0" encoding="utf-8"?>
<!-- Generator: Adobe Illustrator 16.0.0, SVG Export Plug-In . SVG Version: 6.00 Build 0)  -->
<!DOCTYPE svg PUBLIC "-//W3C//DTD SVG 1.1//EN" "http://www.w3.org/Graphics/SVG/1.1/DTD/svg11.dtd">
<svg version="1.1" id="레이어_1" xmlns="http://www.w3.org/2000/svg" xmlns:xlink="http://www.w3.org/1999/xlink" x="0px"
	 y="0px" width="38px" height="38px" viewBox="0 0 38 38" enable-background="new 0 0 38 38" xml:space="preserve">
<path fill="#737373" d="M11.862,17.792v2.373c0,0.655-0.53,1.187-1.186,1.187H8.303c-0.655,0-1.186-0.531-1.186-1.187v-2.373
	c0-0.655,0.531-1.186,1.186-1.186h2.373C11.332,16.606,11.862,17.137,11.862,17.792z M10.676,26.096H8.303
	c-0.655,0-1.186,0.531-1.186,1.188v2.371c0,0.656,0.531,1.188,1.186,1.188h2.373c0.656,0,1.186-0.529,1.186-1.188v-2.371
	C11.862,26.627,11.332,26.096,10.676,26.096z M20.165,16.606h-2.372c-0.655,0-1.186,0.531-1.186,1.186v2.373
	c0,0.655,0.531,1.187,1.186,1.187h2.372c0.655,0,1.187-0.531,1.187-1.187v-2.373C21.352,17.137,20.82,16.606,20.165,16.606z
	 M20.165,26.096h-2.372c-0.655,0-1.186,0.531-1.186,1.188v2.371c0,0.656,0.531,1.188,1.186,1.188h2.372
	c0.655,0,1.187-0.529,1.187-1.188v-2.371C21.352,26.627,20.82,26.096,20.165,26.096z M29.654,16.606h-2.372
	c-0.655,0-1.187,0.531-1.187,1.186v2.373c0,0.655,0.53,1.187,1.187,1.187h2.372c0.656,0,1.187-0.531,1.187-1.187v-2.373
	C30.841,17.137,30.311,16.606,29.654,16.606z M29.654,26.096h-2.372c-0.655,0-1.187,0.531-1.187,1.188v2.371
	c0,0.656,0.53,1.188,1.187,1.188h2.372c0.656,0,1.187-0.529,1.187-1.188v-2.371C30.841,26.627,30.311,26.096,29.654,26.096z
	 M8.303,7.117h2.373c0.656,0,1.186-0.531,1.186-1.186V1.186C11.862,0.53,11.332,0,10.676,0H8.303C7.648,0,7.117,0.53,7.117,1.186
	v4.745C7.117,6.586,7.648,7.117,8.303,7.117z M37.959,9.489v23.724c0,2.62-2.125,4.745-4.745,4.745H4.745
	C2.125,37.958,0,35.833,0,33.213V9.489c0-2.62,2.125-4.745,4.745-4.745h1.187v1.187c0,1.307,1.064,2.372,2.372,2.372h2.373
	c1.309,0,2.373-1.065,2.373-2.372V4.744h11.86v1.187c0,1.307,1.066,2.372,2.372,2.372h2.372c1.308,0,2.373-1.065,2.373-2.372V4.744
	h1.187C35.834,4.744,37.959,6.869,37.959,9.489z M35.586,14.234c0-1.307-1.063-2.373-2.372-2.373H4.745
	c-1.308,0-2.372,1.065-2.372,2.373v18.979c0,1.311,1.064,2.373,2.372,2.373h28.469c1.31,0,2.372-1.063,2.372-2.373V14.234z
	 M27.282,7.117h2.372c0.656,0,1.187-0.531,1.187-1.186V1.186C30.841,0.53,30.311,0,29.654,0h-2.372
	c-0.655,0-1.187,0.531-1.187,1.186v4.745C26.098,6.586,26.627,7.117,27.282,7.117z"/>
</svg>
