<?xml version="1.0" encoding="utf-8"?>
<!-- Generator: Adobe Illustrator 16.0.0, SVG Export Plug-In . SVG Version: 6.00 Build 0)  -->
<!DOCTYPE svg PUBLIC "-//W3C//DTD SVG 1.1//EN" "http://www.w3.org/Graphics/SVG/1.1/DTD/svg11.dtd">
<svg version="1.1" id="레이어_1" xmlns="http://www.w3.org/2000/svg" xmlns:xlink="http://www.w3.org/1999/xlink" x="0px"
	 y="0px" width="38px" height="38px" viewBox="0 0 38 38" enable-background="new 0 0 38 38" xml:space="preserve">
<path fill="#737373" d="M13.716,17.424c0-0.262,0-0.525,0-0.787c0-4.262,0.008-8.523-0.006-12.785
	c-0.004-1.328,0.43-2.465,1.807-3.22c2.377-1.302,5.62-0.031,5.756,2.354c0.152,2.688,0.063,5.385,0.086,8.079
	c0.004,0.31,0.039,0.62,0.064,1.004c0.398-0.068,0.698-0.141,1.004-0.168c1.53-0.142,2.805,0.263,3.713,1.332
	c0.282,0.33,0.485,0.427,0.979,0.282c1.841-0.539,3.364-0.138,4.522,1.164c0.301,0.337,0.537,0.364,1.008,0.227
	c2.744-0.797,5.183,0.715,5.187,3.186c0.002,2.939,0,5.879,0,8.817c-0.002,5.458-4.747,10.103-11.135,10.877
	c-5.491,0.666-9.87-0.981-12.978-4.798c-1.214-1.49-1.952-3.262-2.879-4.916c-1.771-3.157-3.516-6.323-5.284-9.481
	c-0.952-1.701-0.277-3.606,1.64-4.379c1.788-0.722,4.156-0.285,5.223,1.549c0.339,0.582,0.685,1.162,1.028,1.742
	C13.54,17.475,13.627,17.45,13.716,17.424z M15.845,12.886c0,1.322,0,2.644,0,3.966c0,1.762,0.038,3.527-0.033,5.287
	c-0.014,0.33-0.419,0.866-0.725,0.911c-0.389,0.058-0.879-0.265-1.289-0.474c-0.145-0.075-0.185-0.297-0.271-0.45
	c-0.985-1.767-1.949-3.54-2.961-5.294c-0.551-0.957-1.479-1.27-2.395-0.885C7.33,16.301,7.12,17.105,7.64,18.041
	c2.013,3.625,4.02,7.251,6.052,10.868c0.669,1.188,1.215,2.475,2.156,3.493c2.773,3.004,6.466,4.25,10.96,3.541
	c4.934-0.776,8.996-4.697,9.076-8.78c0.059-3.011,0.018-6.022,0.012-9.033c-0.004-0.882-0.638-1.535-1.519-1.61
	c-0.885-0.076-1.61,0.465-1.8,1.366c-0.121,0.578-0.434,0.967-1.194,0.929c-0.782-0.04-0.981-0.492-1.006-1.065
	c-0.019-0.512-0.004-1.033-0.11-1.534c-0.146-0.679-0.826-1.105-1.609-1.094c-0.834,0.012-1.348,0.378-1.568,1.045
	c-0.04,0.117-0.051,0.241-0.082,0.36c-0.133,0.536-0.492,0.933-1.16,0.91S24.835,17,24.785,16.451
	c-0.043-0.486-0.02-0.978-0.057-1.466c-0.052-0.681-0.629-1.188-1.422-1.281c-0.709-0.083-1.434,0.289-1.699,0.894
	c-0.092,0.205-0.14,0.422-0.195,0.637c-0.13,0.498-0.527,0.862-1.081,0.745c-0.413-0.087-0.783-0.468-1.064-0.785
	c-0.143-0.162-0.059-0.474-0.059-0.718c-0.003-3.5-0.002-7.001-0.004-10.501c0-0.269,0.009-0.542-0.034-0.807
	c-0.133-0.823-0.963-1.314-1.935-1.162c-0.916,0.144-1.378,0.705-1.384,1.775C15.838,6.815,15.847,9.851,15.845,12.886z"/>
<path fill="#737373" d="M29.145,5.64c-1.209,0-2.418,0-3.629,0c-0.348,0-0.695,0.005-1.041-0.002
	c-1.076-0.021-1.535-0.303-1.543-0.938c-0.011-0.643,0.449-0.951,1.51-0.961c1.332-0.013,2.666-0.001,3.996-0.005
	c0.277-0.001,0.557-0.022,0.834-0.034c0.058-0.075,0.115-0.149,0.174-0.223C29.08,3.24,28.684,3.03,28.357,2.759
	c-0.504-0.421-0.578-0.929-0.06-1.363c0.487-0.408,1.063-0.347,1.543,0.051c0.995,0.821,1.984,1.646,2.947,2.493
	c0.524,0.46,0.506,0.97-0.024,1.428c-0.994,0.856-2.01,1.696-3.006,2.548c-0.494,0.42-1.04,0.469-1.533,0.072
	c-0.529-0.427-0.475-0.929,0.035-1.356c0.327-0.273,0.713-0.497,1.071-0.742C29.271,5.806,29.208,5.723,29.145,5.64z"/>
<path fill="#737373" d="M5.946,3.735c1.497,0,2.992-0.002,4.489,0.001c1.297,0.002,1.795,0.262,1.805,0.935
	c0.011,0.682-0.5,0.962-1.771,0.969C8.995,5.647,7.521,5.653,6.046,5.666c-0.045,0-0.089,0.053-0.18,0.109
	c0.34,0.303,0.687,0.593,1.01,0.9C7.33,7.107,7.357,7.574,6.868,7.98C6.371,8.395,5.816,8.334,5.333,7.934
	C4.342,7.111,3.352,6.289,2.391,5.442C1.773,4.898,1.788,4.449,2.41,3.909c0.927-0.806,1.869-1.602,2.823-2.386
	C5.815,1.044,6.47,1.008,6.906,1.425c0.496,0.476,0.376,0.95-0.126,1.361c-0.309,0.252-0.67,0.46-1.008,0.688
	C5.83,3.562,5.887,3.648,5.946,3.735z"/>
</svg>
