<?xml version="1.0" encoding="utf-8"?>
<!-- Generator: Adobe Illustrator 16.0.0, SVG Export Plug-In . SVG Version: 6.00 Build 0)  -->
<!DOCTYPE svg PUBLIC "-//W3C//DTD SVG 1.1//EN" "http://www.w3.org/Graphics/SVG/1.1/DTD/svg11.dtd">
<svg version="1.1" id="레이어_1" xmlns="http://www.w3.org/2000/svg" xmlns:xlink="http://www.w3.org/1999/xlink" x="0px"
	 y="0px" width="38px" height="38px" viewBox="0 0 38 38" enable-background="new 0 0 38 38" xml:space="preserve">
<path fill="#737373" d="M33.255,0H4.745C3.433,0,2.369,1.063,2.369,2.376v33.263c0,1.313,1.064,2.375,2.376,2.375h21.383
	l9.503-9.504V2.376C35.631,1.063,34.568,0,33.255,0z M26.128,34.652V28.51h6.144L26.128,34.652z M33.255,26.135h-7.127
	c-1.313,0-2.376,1.063-2.376,2.375v7.129H4.745V2.376h28.51V26.135z M7.121,8.315c0-0.656,0.531-1.188,1.188-1.188h21.382
	c0.656,0,1.188,0.531,1.188,1.188c0,0.658-0.53,1.187-1.188,1.187H8.309C7.652,9.502,7.121,8.973,7.121,8.315z M7.121,15.443
	c0-0.656,0.531-1.188,1.188-1.188h21.382c0.656,0,1.188,0.533,1.188,1.188c0,0.656-0.53,1.188-1.188,1.188H8.309
	C7.652,16.631,7.121,16.1,7.121,15.443z M7.121,22.57c0-0.656,0.531-1.188,1.188-1.188h21.382c0.656,0,1.188,0.531,1.188,1.188
	c0,0.656-0.53,1.188-1.188,1.188H8.309C7.652,23.759,7.121,23.229,7.121,22.57z"/>
</svg>
