<?xml version="1.0" encoding="utf-8"?>
<!-- Generator: Adobe Illustrator 16.0.0, SVG Export Plug-In . SVG Version: 6.00 Build 0)  -->
<!DOCTYPE svg PUBLIC "-//W3C//DTD SVG 1.1//EN" "http://www.w3.org/Graphics/SVG/1.1/DTD/svg11.dtd">
<svg version="1.1" id="레이어_1" xmlns="http://www.w3.org/2000/svg" xmlns:xlink="http://www.w3.org/1999/xlink" x="0px"
	 y="0px" width="38px" height="38px" viewBox="0 0 38 38" enable-background="new 0 0 38 38" xml:space="preserve">
<path fill="#737373" d="M12.334,26.736c-0.002,0-0.004,0-0.006,0c0-3.098,0-6.195,0-9.292c0-0.698-0.078-1.335-0.87-1.628
	c-0.73-0.271-1.161,0.186-1.593,0.612c-1.525,1.51-3.016,3.055-4.564,4.542c-0.569,0.545-0.798,1.119-0.793,1.905
	c0.032,4.384,0.015,8.765,0.02,13.146c0,1.221,0.366,1.599,1.586,1.609c1.423,0.014,2.846-0.009,4.27-0.003
	c1.649,0.007,1.94-0.263,1.947-1.935C12.342,32.708,12.334,29.723,12.334,26.736z"/>
<path fill="#737373" d="M33.709,26.76c0,0,0.002,0,0.004,0c0-3.126-0.002-6.252,0.002-9.376c0.002-0.696-0.209-1.255-0.895-1.555
	c-0.674-0.295-1.121,0.106-1.539,0.52c-1.607,1.589-3.232,3.165-4.779,4.81c-0.379,0.403-0.68,1.063-0.686,1.61
	c-0.055,4.437-0.035,8.873-0.027,13.311c0.002,1.049,0.488,1.533,1.543,1.547c1.535,0.02,3.07,0.007,4.605,0.003
	c1.344-0.003,1.766-0.416,1.77-1.743C33.711,32.844,33.709,29.803,33.709,26.76z"/>
<path fill="#737373" d="M15.177,26.711c0,3.129-0.004,6.256,0.002,9.385c0.001,1.086,0.421,1.521,1.513,1.534
	c1.536,0.019,3.072,0.013,4.609,0.007c1.303-0.004,1.684-0.386,1.686-1.709c0.005-4.385-0.008-8.77,0.011-13.154
	c0.002-0.692-0.222-1.221-0.715-1.705c-1.597-1.559-3.16-3.152-4.745-4.724c-0.423-0.419-0.86-0.791-1.543-0.496
	c-0.682,0.291-0.825,0.809-0.821,1.481C15.188,20.456,15.179,23.583,15.177,26.711z"/>
<path fill="#737373" d="M0.146,16.434c1.55-1.539,3.103-3.072,4.648-4.616c2.565-2.562,5.121-5.132,7.689-7.692
	c0.924-0.92,1.471-0.938,2.454-0.108c3.048,2.57,6.098,5.141,9.135,7.723c0.334,0.286,0.563,0.461,0.963,0.057
	c2.629-2.657,5.281-5.291,7.924-7.934c0.035-0.034,0.039-0.099,0.086-0.238c-0.68,0-1.33-0.008-1.98,0.002
	c-1.094,0.016-1.551-0.304-1.594-1.14c-0.041-0.828,0.43-1.23,1.475-1.299c1.557-0.104,3.121-0.178,4.67-0.359
	c0.885-0.104,1.65-0.062,2.238,0.688c0,0.502,0,1.005,0,1.508c-0.097,0.487-0.23,0.971-0.279,1.462
	c-0.117,1.136-0.178,2.277-0.285,3.415c-0.07,0.74-0.594,1.217-1.246,1.186c-0.717-0.034-1.168-0.548-1.176-1.351
	c-0.006-0.681-0.002-1.362-0.002-2.293c-0.682,0.706-1.223,1.284-1.779,1.843c-2.342,2.35-4.686,4.696-7.037,7.038
	c-1.08,1.079-1.508,1.104-2.693,0.107c-2.94-2.477-5.888-4.953-8.792-7.475c-0.591-0.513-0.913-0.459-1.432,0.065
	c-3.431,3.47-6.893,6.91-10.339,10.363c-1.154,1.158-1.513,1.172-2.647,0.054C0.146,17.103,0.146,16.768,0.146,16.434z"/>
<path fill="#737373" d="M12.334,26.736c0,2.986,0.007,5.972-0.004,8.959c-0.006,1.671-0.297,1.939-1.947,1.934
	c-1.423-0.006-2.846,0.016-4.27,0.003c-1.221-0.012-1.586-0.39-1.586-1.61C4.523,31.641,4.54,27.26,4.509,22.877
	c-0.005-0.786,0.224-1.359,0.793-1.906c1.548-1.487,3.039-3.032,4.564-4.542c0.432-0.427,0.862-0.884,1.593-0.612
	c0.792,0.293,0.87,0.931,0.87,1.628c0,3.097,0,6.196,0,9.292C12.33,26.736,12.332,26.736,12.334,26.736z"/>
<path fill="#737373" d="M33.709,26.76c0,3.043,0.002,6.084-0.002,9.125c-0.004,1.328-0.426,1.741-1.77,1.744
	c-1.535,0.004-3.07,0.016-4.605-0.003c-1.055-0.013-1.541-0.498-1.543-1.547c-0.008-4.438-0.027-8.874,0.027-13.312
	c0.006-0.547,0.307-1.205,0.686-1.609c1.547-1.646,3.172-3.221,4.779-4.81c0.418-0.414,0.865-0.815,1.539-0.52
	c0.686,0.3,0.896,0.859,0.895,1.555c-0.004,3.125-0.002,6.25-0.002,9.377C33.711,26.76,33.709,26.76,33.709,26.76z"/>
<path fill="#737373" d="M15.178,26.711c0.001-3.128,0.01-6.255-0.006-9.382c-0.003-0.672,0.14-1.19,0.821-1.481
	c0.684-0.295,1.121,0.077,1.543,0.496c1.585,1.572,3.149,3.166,4.745,4.724c0.494,0.484,0.717,1.013,0.715,1.705
	c-0.018,4.386-0.006,8.771-0.01,13.154c-0.002,1.323-0.383,1.705-1.687,1.709c-1.536,0.006-3.073,0.012-4.609-0.007
	c-1.092-0.014-1.511-0.448-1.513-1.534C15.173,32.967,15.177,29.84,15.178,26.711z"/>
</svg>
