<?xml version="1.0" encoding="utf-8"?>
<!-- Generator: Adobe Illustrator 16.0.0, SVG Export Plug-In . SVG Version: 6.00 Build 0)  -->
<!DOCTYPE svg PUBLIC "-//W3C//DTD SVG 1.1//EN" "http://www.w3.org/Graphics/SVG/1.1/DTD/svg11.dtd">
<svg version="1.1" id="레이어_1" xmlns="http://www.w3.org/2000/svg" xmlns:xlink="http://www.w3.org/1999/xlink" x="0px"
	 y="0px" width="38px" height="38px" viewBox="0 0 38 38" enable-background="new 0 0 38 38" xml:space="preserve">
<g>
	<path fill="#737373" d="M31.281,15.944h-2.713V9.641c0-5.276-4.286-9.567-9.566-9.567c-5.276,0-9.571,4.292-9.571,9.567v6.3H6.723
		c-1.305,0-2.364,1.059-2.364,2.364v17.253c0,1.311,1.059,2.369,2.364,2.369h24.559c1.306,0,2.36-1.06,2.36-2.369v-17.25
		C33.643,17.003,32.587,15.944,31.281,15.944L31.281,15.944z M20.331,27.387v3.766c0,0.17-0.14,0.309-0.31,0.309h-2.033
		c-0.174,0-0.313-0.143-0.313-0.309v-3.766c-0.953-0.486-1.614-1.469-1.614-2.615c0-1.623,1.317-2.943,2.939-2.943
		c1.626,0,2.942,1.32,2.942,2.943C21.945,25.918,21.284,26.896,20.331,27.387L20.331,27.387z M24.898,15.944H13.107V9.799
		c0-3.252,2.646-5.898,5.898-5.898s5.894,2.646,5.894,5.898V15.944L24.898,15.944z"/>
</g>
</svg>
