<?xml version="1.0" encoding="utf-8"?>
<!-- Generator: Adobe Illustrator 16.0.0, SVG Export Plug-In . SVG Version: 6.00 Build 0)  -->
<!DOCTYPE svg PUBLIC "-//W3C//DTD SVG 1.1//EN" "http://www.w3.org/Graphics/SVG/1.1/DTD/svg11.dtd">
<svg version="1.1" id="레이어_1" xmlns="http://www.w3.org/2000/svg" xmlns:xlink="http://www.w3.org/1999/xlink" x="0px"
	 y="0px" width="38px" height="38px" viewBox="0 0 38 38" enable-background="new 0 0 38 38" xml:space="preserve">
<path fill="#737373" d="M8.03,19.071c0-4.882-0.003-9.763,0.001-14.644c0.001-2.157,1.325-3.771,3.427-4.175
	c0.346-0.067,0.708-0.072,1.061-0.072c4.321-0.005,8.642,0.007,12.963-0.009c1.438-0.005,2.654,0.441,3.588,1.558
	c0.621,0.743,0.897,1.618,0.897,2.579c0.003,9.845,0.009,19.689-0.003,29.534c-0.004,2.299-1.771,4.096-4.076,4.111
	c-4.595,0.027-9.188,0.029-13.783,0c-2.333-0.018-4.071-1.842-4.074-4.197C8.025,28.861,8.03,23.966,8.03,19.071z M9.703,19.027
	c0,3.841,0,7.682,0,11.522c0,0.785,0.144,0.928,0.931,0.928c5.577,0,11.155,0,16.732,0c0.793,0,0.94-0.143,0.94-0.922
	c0-7.695,0-15.392,0-23.088c0-0.741-0.183-0.925-0.916-0.925c-5.591-0.001-11.182-0.001-16.771,0c-0.741,0-0.916,0.177-0.916,0.92
	C9.702,11.317,9.703,15.172,9.703,19.027z M18.991,32.839c-1.042,0.005-1.876,0.835-1.88,1.869
	c-0.003,1.045,0.861,1.909,1.901,1.901c1.048-0.006,1.888-0.867,1.875-1.922C20.873,33.65,20.037,32.834,18.991,32.839z
	 M19.005,3.328c0.914,0,1.832,0,2.746,0c0.261,0,0.535-0.016,0.534-0.353c-0.003-0.337-0.294-0.36-0.541-0.361
	c-1.831-0.006-3.662-0.006-5.493,0c-0.249,0-0.539,0.031-0.534,0.368C15.722,3.319,16,3.329,16.259,3.328
	C17.173,3.327,18.09,3.328,19.005,3.328z"/>
</svg>
