<?xml version="1.0" encoding="utf-8"?>
<!-- Generator: Adobe Illustrator 16.0.0, SVG Export Plug-In . SVG Version: 6.00 Build 0)  -->
<!DOCTYPE svg PUBLIC "-//W3C//DTD SVG 1.1//EN" "http://www.w3.org/Graphics/SVG/1.1/DTD/svg11.dtd">
<svg version="1.1" id="레이어_1" xmlns="http://www.w3.org/2000/svg" xmlns:xlink="http://www.w3.org/1999/xlink" x="0px"
	 y="0px" width="38px" height="38px" viewBox="0 0 38 38" enable-background="new 0 0 38 38" xml:space="preserve">
<g transform="translate(384 144)">
	<path fill="#737373" d="M-382.738-114.574h14.221c0.657,0,1.185-0.398,1.185-0.889v-1.777c0-0.49-0.528-0.889-1.185-0.889h-14.221
		c-0.656,0-1.185,0.398-1.185,0.889v1.777C-383.923-114.973-383.394-114.574-382.738-114.574z M-382.738-109.834h14.221
		c0.657,0,1.185-0.398,1.185-0.889v-1.777c0-0.49-0.528-0.889-1.185-0.889h-14.221c-0.656,0-1.185,0.398-1.185,0.889v1.777
		C-383.923-110.232-383.394-109.834-382.738-109.834z M-382.738-119.314h14.221c0.657,0,1.185-0.397,1.185-0.889v-1.777
		c0-0.49-0.528-0.889-1.185-0.889h-14.221c-0.656,0-1.185,0.398-1.185,0.889v1.777
		C-383.923-119.713-383.394-119.314-382.738-119.314z M-365.014-119.785c0.02-0.139,0.053-0.271,0.053-0.418v-1.777
		c0-1.83-1.56-3.258-3.555-3.258h-4.741c0-3.274,2.652-5.925,5.926-5.925c3.274,0,5.925,2.651,5.925,5.925
		C-361.406-122.793-362.895-120.689-365.014-119.785z M-383.923-135.906h33.183v21.332h-14.361c0.083-0.279,0.14-0.576,0.14-0.889
		v-1.48h7.111c0-2.619,2.121-4.74,4.74-4.74v-7.11c-2.619,0-4.74-2.123-4.74-4.741h-18.962c0,2.618-2.122,4.741-4.74,4.741v3.555
		h-1.185c-0.42,0-0.813,0.074-1.185,0.192L-383.923-135.906L-383.923-135.906z M-346-140.646v23.703h-2.37v-21.333h-33.183v-2.37
		H-346z"/>
</g>
</svg>
