<?xml version="1.0" encoding="utf-8"?>
<!-- Generator: Adobe Illustrator 16.0.0, SVG Export Plug-In . SVG Version: 6.00 Build 0)  -->
<!DOCTYPE svg PUBLIC "-//W3C//DTD SVG 1.1//EN" "http://www.w3.org/Graphics/SVG/1.1/DTD/svg11.dtd">
<svg version="1.1" id="레이어_1" xmlns="http://www.w3.org/2000/svg" xmlns:xlink="http://www.w3.org/1999/xlink" x="0px"
	 y="0px" width="38px" height="38px" viewBox="0 0 38 38" enable-background="new 0 0 38 38" xml:space="preserve">
<g>
	<g>
		<path fill="#737373" d="M19.205,19.015c2.625,0,4.863-0.929,6.722-2.785c1.856-1.857,2.785-4.098,2.785-6.722
			s-0.929-4.865-2.785-6.722C24.068,0.928,21.829,0,19.205,0c-2.625,0-4.866,0.928-6.723,2.785S9.697,6.883,9.697,9.507
			s0.928,4.865,2.785,6.722S16.58,19.015,19.205,19.015z"/>
		<path fill="#737373" d="M36.548,29.055c-0.058-0.834-0.174-1.734-0.347-2.699c-0.174-0.965-0.393-1.859-0.657-2.686
			s-0.619-1.631-1.063-2.414c-0.444-0.785-0.957-1.453-1.535-2.006c-0.578-0.553-1.284-0.994-2.116-1.324
			c-0.834-0.33-1.754-0.495-2.763-0.495c-0.147,0-0.494,0.177-1.039,0.532s-1.158,0.751-1.844,1.188s-1.576,0.833-2.675,1.188
			c-1.097,0.354-2.198,0.532-3.305,0.532c-1.106,0-2.207-0.178-3.305-0.532s-1.989-0.751-2.674-1.188
			c-0.686-0.437-1.3-0.833-1.845-1.188c-0.544-0.355-0.891-0.532-1.04-0.532c-1.007,0-1.927,0.166-2.761,0.495
			c-0.833,0.33-1.539,0.771-2.117,1.324c-0.578,0.553-1.089,1.221-1.535,2.006c-0.445,0.783-0.8,1.59-1.064,2.414
			C2.6,24.495,2.38,25.391,2.207,26.355s-0.289,1.865-0.347,2.697c-0.058,0.834-0.086,1.689-0.086,2.563
			c0,1.979,0.603,3.545,1.807,4.692c1.205,1.146,2.807,1.719,4.804,1.719h21.641c1.996,0,3.598-0.572,4.804-1.719
			c1.205-1.147,1.808-2.713,1.808-4.692C36.635,30.743,36.605,29.889,36.548,29.055z"/>
	</g>
</g>
</svg>
