<?xml version="1.0" encoding="utf-8"?>
<!-- Generator: Adobe Illustrator 16.0.0, SVG Export Plug-In . SVG Version: 6.00 Build 0)  -->
<!DOCTYPE svg PUBLIC "-//W3C//DTD SVG 1.1//EN" "http://www.w3.org/Graphics/SVG/1.1/DTD/svg11.dtd">
<svg version="1.1" id="레이어_1" xmlns="http://www.w3.org/2000/svg" xmlns:xlink="http://www.w3.org/1999/xlink" x="0px"
	 y="0px" width="38px" height="38px" viewBox="0 0 38 38" enable-background="new 0 0 38 38" xml:space="preserve">
<g>
	<path fill="#737373" d="M35.254,19.014c0,8.987-7.285,16.27-16.271,16.27c-8.989,0-16.271-7.283-16.271-16.27
		c0-8.988,7.282-16.271,16.271-16.271c4.815,0,9.139,2.092,12.117,5.416h-6.674v2.712h1.188h7.455h2.205v-0.019h0.019V9.305V0H32.58
		v5.772c-3.443-3.545-8.264-5.741-13.597-5.741C8.498,0.031,0,8.531,0,19.014c0,10.483,8.498,18.983,18.982,18.983
		c10.483,0,18.983-8.5,18.983-18.983H35.254z"/>
</g>
</svg>
