<?xml version="1.0" encoding="utf-8"?>
<!-- Generator: Adobe Illustrator 16.0.0, SVG Export Plug-In . SVG Version: 6.00 Build 0)  -->
<!DOCTYPE svg PUBLIC "-//W3C//DTD SVG 1.1//EN" "http://www.w3.org/Graphics/SVG/1.1/DTD/svg11.dtd">
<svg version="1.1" id="레이어_1" xmlns="http://www.w3.org/2000/svg" xmlns:xlink="http://www.w3.org/1999/xlink" x="0px"
	 y="0px" width="38px" height="38px" viewBox="0 0 38 38" enable-background="new 0 0 38 38" xml:space="preserve">
<g>
	<g>
		<path fill="#737373" d="M18.997,9.907L5.447,20.652c0,0.015-0.004,0.037-0.012,0.068c-0.008,0.028-0.012,0.051-0.012,0.065v10.882
			c0,0.393,0.149,0.732,0.448,1.021c0.298,0.285,0.652,0.43,1.061,0.43h9.049v-8.704h6.033v8.706h9.049
			c0.408,0,0.763-0.146,1.062-0.432c0.299-0.287,0.449-0.629,0.449-1.021V20.787c0-0.061-0.011-0.104-0.025-0.135L18.997,9.907z"/>
		<path fill="#737373" d="M37.732,18.204l-5.16-4.126V4.83c0-0.212-0.072-0.386-0.215-0.521c-0.14-0.136-0.32-0.204-0.541-0.204
			h-4.524c-0.219,0-0.399,0.068-0.543,0.204c-0.14,0.136-0.21,0.31-0.21,0.521v4.42l-5.751-4.625
			c-0.501-0.393-1.101-0.589-1.791-0.589c-0.69,0-1.288,0.196-1.79,0.589L0.262,18.204c-0.157,0.121-0.243,0.283-0.259,0.486
			c-0.016,0.206,0.039,0.383,0.165,0.534l1.461,1.678c0.126,0.135,0.291,0.218,0.495,0.248c0.188,0.017,0.377-0.039,0.565-0.158
			l16.308-13.08l16.308,13.08c0.129,0.105,0.291,0.156,0.495,0.156h0.071c0.203-0.028,0.367-0.111,0.494-0.246l1.462-1.678
			c0.126-0.151,0.18-0.328,0.163-0.534C37.977,18.487,37.887,18.325,37.732,18.204z"/>
	</g>
</g>
</svg>
