<?xml version="1.0" encoding="utf-8"?>
<!-- Generator: Adobe Illustrator 16.0.0, SVG Export Plug-In . SVG Version: 6.00 Build 0)  -->
<!DOCTYPE svg PUBLIC "-//W3C//DTD SVG 1.1//EN" "http://www.w3.org/Graphics/SVG/1.1/DTD/svg11.dtd">
<svg version="1.1" id="레이어_1" xmlns="http://www.w3.org/2000/svg" xmlns:xlink="http://www.w3.org/1999/xlink" x="0px"
	 y="0px" width="38px" height="38px" viewBox="0 0 38 38" enable-background="new 0 0 38 38" xml:space="preserve">
<g>
	<g>
		<path fill="#FFFFFF" d="M19.205,19.015c2.625,0,4.864-0.929,6.722-2.785c1.856-1.857,2.785-4.098,2.785-6.722
			s-0.929-4.865-2.785-6.722C24.069,0.928,21.829,0,19.205,0c-2.625,0-4.866,0.928-6.723,2.785S9.697,6.883,9.697,9.507
			s0.928,4.865,2.785,6.722C14.339,18.086,16.58,19.015,19.205,19.015z"/>
		<path fill="#FFFFFF" d="M36.548,29.054c-0.058-0.833-0.174-1.733-0.347-2.698c-0.174-0.966-0.393-1.86-0.657-2.686
			c-0.264-0.826-0.619-1.631-1.063-2.414c-0.445-0.785-0.958-1.453-1.536-2.006c-0.578-0.553-1.284-0.994-2.116-1.324
			c-0.834-0.33-1.754-0.495-2.762-0.495c-0.148,0-0.495,0.177-1.04,0.532c-0.544,0.355-1.158,0.751-1.844,1.188
			c-0.685,0.437-1.576,0.833-2.674,1.188c-1.097,0.354-2.199,0.532-3.305,0.532c-1.106,0-2.207-0.178-3.305-0.532
			s-1.989-0.751-2.674-1.188c-0.686-0.437-1.3-0.833-1.845-1.188c-0.544-0.355-0.891-0.532-1.04-0.532
			c-1.007,0-1.927,0.166-2.761,0.495c-0.833,0.33-1.539,0.771-2.117,1.324c-0.578,0.553-1.089,1.221-1.535,2.006
			c-0.445,0.783-0.8,1.589-1.064,2.414C2.6,24.495,2.38,25.39,2.207,26.355c-0.173,0.965-0.289,1.865-0.347,2.698
			c-0.058,0.834-0.086,1.689-0.086,2.563c0,1.98,0.603,3.545,1.807,4.692c1.205,1.146,2.807,1.72,4.804,1.72h21.64
			c1.996,0,3.598-0.573,4.804-1.72c1.205-1.147,1.808-2.712,1.808-4.692C36.635,30.743,36.606,29.888,36.548,29.054z"/>
	</g>
</g>
</svg>
