<?xml version="1.0" encoding="utf-8"?>
<!-- Generator: Adobe Illustrator 16.0.0, SVG Export Plug-In . SVG Version: 6.00 Build 0)  -->
<!DOCTYPE svg PUBLIC "-//W3C//DTD SVG 1.1//EN" "http://www.w3.org/Graphics/SVG/1.1/DTD/svg11.dtd">
<svg version="1.1" id="레이어_1" xmlns="http://www.w3.org/2000/svg" xmlns:xlink="http://www.w3.org/1999/xlink" x="0px"
	 y="0px" width="38px" height="38px" viewBox="0 0 38 38" enable-background="new 0 0 38 38" xml:space="preserve">
<g>
	<g>
		<path fill="#FFFFFF" d="M35.993,15.588c0.563-0.568,0.855-1.223,0.862-2.008c0.006-0.8-0.346-1.445-0.859-2.014
			c1.712-1.802,0.674-4.46-1.608-4.787v17.649c2.304-0.319,3.326-3.01,1.618-4.773C37.167,18.304,37.146,16.944,35.993,15.588z"/>
		<path fill="#FFFFFF" d="M14.274,27.409c0,1.198,0.977,2.175,2.176,2.175h3.986h11.022c1.202,0,2.175-0.977,2.175-2.175V2.176
			c0-1.2-0.973-2.176-2.175-2.176H16.45c-1.199,0-2.176,0.976-2.176,2.176v4.532c0.436-0.074,0.847-0.12,1.224-0.133
			c0.863-0.026,1.52-0.049,2.041-0.072V3.264h12.833V23.82H17.539V13.546c-0.691,0.21-1.34,0.511-1.995,0.922
			c-0.26,0.164-0.784,0.554-1.27,0.925v4.185 M23.954,27.678c-0.584,0-1.06-0.476-1.06-1.061c0-0.587,0.476-1.061,1.06-1.061
			c0.587,0,1.063,0.474,1.063,1.061C25.017,27.202,24.541,27.678,23.954,27.678z"/>
		<path fill="#FFFFFF" d="M13.467,27.914V17.879c0-1.732-0.363-2.65-0.363-2.65s1.638-1.294,2.233-1.666
			c1.268-0.799,2.618-1.219,4.423-1.396c5.028-0.499,5.551-5.388,2.888-5.388c-2.078,0-2.718,0.269-6.899,0.398
			c-2.255,0.068-6.006,0.809-7.237,1.964c-1.971,1.848-1.279,11.719-2.004,15.08l-4.678,7.105l10.923,6.585
			c3.271-5.025,7.947-7.522,7.947-7.522s-3.521,0-4.35,0C14.154,30.39,13.467,29.043,13.467,27.914z"/>
	</g>
</g>
</svg>
