<?xml version="1.0" encoding="utf-8"?>
<!-- Generator: Adobe Illustrator 16.0.0, SVG Export Plug-In . SVG Version: 6.00 Build 0)  -->
<!DOCTYPE svg PUBLIC "-//W3C//DTD SVG 1.1//EN" "http://www.w3.org/Graphics/SVG/1.1/DTD/svg11.dtd">
<svg version="1.1" id="레이어_1" xmlns="http://www.w3.org/2000/svg" xmlns:xlink="http://www.w3.org/1999/xlink" x="0px"
	 y="0px" width="38px" height="38px" viewBox="0 0 38 38" enable-background="new 0 0 38 38" xml:space="preserve">
<path fill="#FFFFFF" d="M18.988,21.731c-1.033,0.944-2.044,1.878-3.055,2.8c-3.644,3.344-7.289,6.711-10.943,10.055
	c-1.433,1.311-3.3,1.232-4.4-0.155c-0.789-1.012-0.789-2.467,0.011-3.467c0.145-0.178,0.322-0.355,0.489-0.522
	c5.21-5.121,10.432-10.232,15.643-15.332c1.167-1.133,2.466-1.367,3.688-0.656c0.256,0.145,0.478,0.333,0.7,0.533
	c5.311,5.2,10.632,10.399,15.92,15.61c1.545,1.511,1.155,3.889-0.755,4.699c-1.211,0.512-2.3,0.233-3.244-0.655
	c-1.777-1.645-3.566-3.278-5.344-4.911c-2.801-2.566-5.589-5.144-8.388-7.71C19.21,21.92,19.111,21.854,18.988,21.731z"/>
<path fill="#FFFFFF" d="M18.99,3.418c4.79,0,9.579,0,14.369,0c1.517,0,2.641,1.115,2.613,2.569
	c-0.018,1.302-1.061,2.381-2.363,2.471c-0.089,0.009-0.179,0-0.268,0c-9.562,0-19.124,0-28.694,0c-1.418,0-2.506-0.945-2.631-2.283
	C1.883,4.703,3.024,3.427,4.532,3.418c2.337-0.018,4.691,0,7.028,0C14.04,3.418,16.519,3.418,18.99,3.418z"/>
</svg>
