<?xml version="1.0" encoding="utf-8"?>
<!-- Generator: Adobe Illustrator 16.0.0, SVG Export Plug-In . SVG Version: 6.00 Build 0)  -->
<!DOCTYPE svg PUBLIC "-//W3C//DTD SVG 1.1//EN" "http://www.w3.org/Graphics/SVG/1.1/DTD/svg11.dtd">
<svg version="1.1" id="레이어_1" xmlns="http://www.w3.org/2000/svg" xmlns:xlink="http://www.w3.org/1999/xlink" x="0px"
	 y="0px" width="38px" height="38px" viewBox="0 0 38 38" enable-background="new 0 0 38 38" xml:space="preserve">
<path fill-rule="evenodd" clip-rule="evenodd" fill="#FFFFFF" d="M12.687,0c0,0.91,0,1.817,0,3.009
	c-2.174,0.095-4.2,0.187-6.473,0.289c3.003,3.625,5.826,6.997,8.549,10.454c0.144,0.18-0.619,1.077-1.12,1.916
	c-3.352-3.677-6.227-6.833-9.099-9.989c-0.373,0.209-0.75,0.419-1.123,0.625c0,1.961,0,3.919,0,6.178
	C2,12.56,1.011,12.612,0.02,12.667c0-4.22,0-8.443,0-12.667C4.24,0,8.464,0,12.687,0z"/>
<path fill-rule="evenodd" clip-rule="evenodd" fill="#FFFFFF" d="M0.02,25.335c0.907,0,1.817,0,3.009,0
	c0.095,2.175,0.183,4.198,0.289,6.523c4.187-2.3,6.26-7.498,10.7-8.749c0.383,0.576,0.766,1.159,1.146,1.741
	c-3.156,2.874-6.313,5.757-9.465,8.631c0.203,0.373,0.409,0.746,0.612,1.121c1.965,0,3.93,0,6.191,0
	c0.076,1.421,0.131,2.409,0.187,3.397C8.464,38,4.24,38,0.02,38C0.02,33.783,0.02,29.559,0.02,25.335z"/>
<path fill-rule="evenodd" clip-rule="evenodd" fill="#FFFFFF" d="M38.02,12.667c-0.91,0-1.82,0-2.999,0
	c-0.102-2.184-0.2-4.213-0.331-6.911c-3.287,3.595-6.169,6.741-9.357,10.225c-1.328-1.329-1.961-1.96-2.979-2.979
	c3.482-3.087,6.626-5.871,9.767-8.653c-0.135-0.308-0.271-0.616-0.406-0.923c-1.955,0-3.909,0-6.155,0
	C25.474,1.987,25.411,0.995,25.351,0c4.225,0,8.445,0,12.669,0C38.02,4.224,38.02,8.447,38.02,12.667z"/>
<path fill-rule="evenodd" clip-rule="evenodd" fill="#FFFFFF" d="M25.351,38c0-0.91,0-1.82,0-2.999
	c2.188-0.105,4.218-0.197,7.05-0.334c-3.683-3.326-6.853-6.188-10.355-9.358c1.326-1.322,1.959-1.957,2.977-2.972
	c3.084,3.482,5.867,6.626,8.65,9.763c0.307-0.132,0.615-0.269,0.922-0.405c0-1.952,0-3.909,0-6.155
	c1.438-0.085,2.434-0.145,3.426-0.204c0,4.224,0,8.448,0,12.665C33.796,38,29.575,38,25.351,38z"/>
</svg>
