<?xml version="1.0" encoding="utf-8"?>
<!-- Generator: Adobe Illustrator 16.0.0, SVG Export Plug-In . SVG Version: 6.00 Build 0)  -->
<!DOCTYPE svg PUBLIC "-//W3C//DTD SVG 1.1//EN" "http://www.w3.org/Graphics/SVG/1.1/DTD/svg11.dtd">
<svg version="1.1" id="레이어_1" xmlns="http://www.w3.org/2000/svg" xmlns:xlink="http://www.w3.org/1999/xlink" x="0px"
	 y="0px" width="38px" height="38px" viewBox="0 0 38 38" enable-background="new 0 0 38 38" xml:space="preserve">
<g>
	<path fill-rule="evenodd" clip-rule="evenodd" fill="#FFFFFF" d="M25.76,1.532c-2.507-1.385-5.234-1.647-8.046-1.487
		c-4.794,0.275-8.433,3-9.93,7.546c-0.33,1.002-0.52,2.049-0.797,3.165c1.032,0.158,1.827,0.287,2.624,0.4
		c1.864,0.265,1.865,0.261,2.397-1.551c1.181-4.023,4.099-6.044,8.137-5.638c3.657,0.368,6.494,3.586,6.295,7.138
		c-0.09,1.608-1.021,2.766-2.097,3.817c-1.585,1.552-3.253,3.023-4.823,4.587c-2.601,2.592-3.258,5.83-3.025,9.385
		c1.514,0,2.982,0,4.465,0c0.026-0.43,0.064-0.795,0.067-1.158c0.02-2.869,1.16-5.164,3.363-7.02
		c1.354-1.141,2.599-2.421,3.811-3.714C33.201,11.676,31.006,4.431,25.76,1.532z"/>
	<path fill-rule="evenodd" clip-rule="evenodd" fill="#FFFFFF" d="M15.871,37.998c1.692,0,3.346,0,5.069,0c0-1.727,0-3.381,0-5.068
		c-1.711,0-3.366,0-5.069,0C15.871,34.635,15.871,36.289,15.871,37.998z"/>
</g>
</svg>
